<svg width="32" height="32" viewBox="0 0 32 32" fill="none" xmlns="http://www.w3.org/2000/svg">
<rect width="32" height="32" rx="10" fill="#370617"/>
<path d="M21.6025 18.6316C20.1358 18.4983 19.3358 20.4983 18.2691 21.0316C16.5358 21.965 13.3358 18.6316 13.3358 18.6316C13.3358 18.6316 10.0025 15.4316 10.8025 13.6983C11.4691 12.6316 13.4691 11.8316 13.3358 10.365C13.2025 9.03163 10.2691 4.23163 8.80247 5.56496C5.60247 8.4983 5.3358 9.6983 5.3358 12.0983C5.20247 16.2316 10.5358 21.4316 10.5358 21.4316C11.0691 21.965 15.7358 26.765 19.8691 26.6316C22.2691 26.6316 23.4691 26.365 26.4025 23.165C27.7358 21.6983 23.0691 18.765 21.6025 18.6316V18.6316Z" fill="white"/>
</svg>
