<svg width="32" height="32" viewBox="0 0 32 32" fill="none" xmlns="http://www.w3.org/2000/svg">
<rect width="32" height="32" rx="10" fill="#370617"/>
<g clip-path="url(#clip0_6_79)">
<path fill-rule="evenodd" clip-rule="evenodd" d="M15.9642 4.2449C9.34833 4.2449 4 9.63265 4 16.298C4 21.626 7.42686 26.1361 12.1808 27.7323C12.7752 27.8523 12.9929 27.473 12.9929 27.1539C12.9929 26.8744 12.9733 25.9167 12.9733 24.9187C9.64514 25.6372 8.95208 23.4819 8.95208 23.4819C8.41722 22.085 7.62473 21.726 7.62473 21.726C6.53543 20.9876 7.70408 20.9876 7.70408 20.9876C8.91241 21.0674 9.54645 22.2248 9.54645 22.2248C10.6159 24.0606 12.3393 23.5419 13.0326 23.2225C13.1315 22.4442 13.4487 21.9055 13.7854 21.6062C11.1309 21.3268 8.33812 20.2891 8.33812 15.6593C8.33812 14.3423 8.81322 13.2647 9.56604 12.4267C9.44726 12.1274 9.03118 10.89 9.68506 9.23371C9.68506 9.23371 10.6953 8.91437 12.9731 10.4709C13.9483 10.2071 14.954 10.0729 15.9642 10.0718C16.9744 10.0718 18.0042 10.2116 18.9552 10.4709C21.2332 8.91437 22.2434 9.23371 22.2434 9.23371C22.8973 10.89 22.481 12.1274 22.3622 12.4267C23.1349 13.2647 23.5904 14.3423 23.5904 15.6593C23.5904 20.2891 20.7975 21.3067 18.1233 21.6062C18.5592 21.9853 18.9353 22.7036 18.9353 23.8411C18.9353 25.4575 18.9158 26.7547 18.9158 27.1536C18.9158 27.473 19.1337 27.8523 19.7278 27.7326C24.4818 26.1358 27.9087 21.626 27.9087 16.298C27.9282 9.63265 22.5603 4.2449 15.9642 4.2449Z" fill="white"/>
</g>
<defs>
<clipPath id="clip0_6_79">
<rect width="24" height="23.5102" fill="white" transform="translate(4 4.2449)"/>
</clipPath>
</defs>
</svg>
